<?xml version="1.0" encoding="utf-8"?>
<!-- Generator: Adobe Illustrator 17.0.0, SVG Export Plug-In . SVG Version: 6.00 Build 0)  -->
<!DOCTYPE svg PUBLIC "-//W3C//DTD SVG 1.1//EN" "http://www.w3.org/Graphics/SVG/1.1/DTD/svg11.dtd">
<svg version="1.1" id="Layer_1" xmlns="http://www.w3.org/2000/svg" xmlns:xlink="http://www.w3.org/1999/xlink" x="0px" y="0px"
	 width="100px" height="90px" viewBox="0 0 100 90" enable-background="new 0 0 100 90" xml:space="preserve">
<g>
	<path fill-rule="evenodd" clip-rule="evenodd" fill="#9098CC" d="M43.305,24.619c0.945-0.585,1.75-0.499,2.695,0.335v-5.618
		c0-1.243,1.012-2.256,2.256-2.256c1.245,0,2.256,1.013,2.256,2.256v2.193h0.75c0.836,0,1.605,0.474,1.99,1.207h0.707
		c0.795,0,1.529,0.423,1.935,1.096h0.718c0.899,0,1.672,0.534,2.033,1.299c0.618-2.936,1.113-6.63,0.999-10.162
		c-0.037-1.189-0.452-2.113-1.268-2.829c-2.204-1.932-6.755-1.95-8.322-1.794l-0.004-0.028c-2.395,0.15-5.32,0.673-6.917,2.095
		c-0.77,0.687-1.146,1.498-1.18,2.554c-0.111,3.45,0.359,7.054,0.957,9.955C43.026,24.814,43.155,24.712,43.305,24.619z"/>
	<path fill-rule="evenodd" clip-rule="evenodd" fill="#231F20" d="M67.371,54.583c-0.051,0.008-0.099,0.015-0.15,0.026l-0.345,0.061
		l-0.098,0.022c-1.889,0.49-7.14,1.624-15.037,1.624c-0.361,0-0.727,0-1.135-0.008c-8.51,0.116-14.161-1.105-16.14-1.613
		l-0.434-0.082c-0.056-0.01-0.109-0.02-0.163-0.029c-0.12-0.803-0.219-2.295-0.282-3.842c0.989,0.251,2.354,0.561,4.067,0.856
		c4.368,0.664,8.731,1.01,12.974,1.028c4.234-0.017,8.597-0.363,12.988-1.031c1.671-0.291,3.031-0.681,4.038-1.036
		C67.592,52.191,67.49,53.751,67.371,54.583L67.371,54.583z M41.163,45.216c1.518-0.283,3.63-0.866,4.74-2.631
		c0.221-0.406,0.524-1.2,0.726-1.762h-0.053c0.508-1.034,0.812-2.252,0.812-3.696v-4.23l-0.484-0.484
		c-0.043-0.042-1.044-0.649-2.275-1.799c-0.25-0.383-0.618-1.354-1.002-2.709l-0.039-0.272c-0.084-0.402-0.017-0.837,0.079-1.141
		c0.032-0.101,0.132-0.273,0.17-0.328c0.082-0.123,0.1-0.145,0.273-0.251c0.137-0.085,0.225-0.137,0.314-0.137
		c0.177,0,1.132-0.195,1.577,1.47l0.255,1.413l1.267,0.403v-9.726c0-0.404,0.329-0.733,0.733-0.733c0.405,0,0.733,0.329,0.733,0.733
		v6.148c0,0.421,0.344,0.762,0.763,0.762c0.419,0,0.76-0.341,0.76-0.762v-2.431h0.75c0.403,0,0.732,0.328,0.732,0.733v1.698
		c0,0.419,0.341,0.762,0.759,0.762c0.422,0,0.764-0.343,0.764-0.762v-1.227h0.441c0.405,0,0.734,0.329,0.734,0.733v1.451
		c0,0.42,0.342,0.762,0.761,0.762c0.42,0,0.763-0.342,0.763-0.762l-0.002-1.087h0.395c0.388,0,0.713,0.31,0.732,0.698l-1.069,5.037
		c-0.905,0.656-1.547,1.291-1.581,1.326l-0.485,0.495v4.218c0,1.397,0.275,2.579,0.735,3.59c0.413,0.874,1.125,1.8,1.288,2.007
		c1.424,1.649,4.713,2.774,9.661,3.431c-2.76,0.543-9.861,1.227-14.296,1.576c-0.105,0.004-0.474,0.011-1.06,0.011
		c-2.432,0-8.433-0.148-14.701-1.418C36.983,46.052,38.734,45.668,41.163,45.216L41.163,45.216L41.163,45.216z M42.906,24.925
		L42.906,24.925c0.118-0.108,0.248-0.212,0.399-0.306c0.945-0.585,1.75-0.499,2.695,0.335v-5.619c0-1.243,1.012-2.256,2.256-2.256
		c1.245,0,2.256,1.013,2.256,2.256v2.194h0.75c0.836,0,1.605,0.475,1.99,1.206l0.707,0c0.795,0,1.53,0.423,1.935,1.096h0.718
		c0.901,0,1.674,0.535,2.035,1.302c0.618-2.935,1.111-6.635,0.997-10.167c-0.037-1.188-0.452-2.112-1.268-2.828
		c-2.204-1.933-6.755-1.95-8.322-1.795l-0.003-0.027c-2.396,0.15-5.321,0.672-6.918,2.095c-0.771,0.687-1.146,1.499-1.18,2.554
		C41.841,18.415,42.309,22.025,42.906,24.925L42.906,24.925z M70.481,45.724c-0.178-1.56-2.019-2.007-3.983-2.257
		c-0.674-0.087-1.288-0.179-1.848-0.276h0.211c-0.101-0.004-0.204-0.012-0.31-0.018c-2.906-0.512-4.35-1.15-5.086-1.649
		c-1.137-0.905-1.948-2.285-1.948-4.397v-2.813c0.334-0.284,0.806-0.656,1.325-0.967c2.29-1.374,4.322-11.914,4.111-18.486
		c-0.068-2.123-0.875-3.876-2.394-5.209c-1.971-1.728-4.808-2.362-7.086-2.572l0.005-0.054c-0.347-0.03-8.502-0.677-12.54,2.913
		c-1.456,1.296-2.228,2.952-2.291,4.923c-0.211,6.572,1.819,17.111,4.111,18.486c0.519,0.311,0.992,0.684,1.324,0.967l0,2.813
		c0,1.564-0.5,2.771-1.269,3.697h-0.002c-0.002,0.002-0.002,0.003-0.003,0.005c-0.611,0.733-1.391,1.289-2.233,1.705
		c-4.977,0.929-7.142,1.568-7.195,1.586c-1.413,0.38-2.264,0.972-2.533,1.759c-0.13,0.376-0.113,0.769,0.028,1.133l-0.116-0.04
		l0.035,1.958c0,0.071,0.029,1.742,0.128,3.455c0.188,3.248,0.381,4.499,1.661,4.748c0.325,0.062,0.645,0.122,0.963,0.18
		l0.287,0.051c2.495,0.641,7.811,1.698,15.674,1.698c0.375,0,0.753-0.003,1.101-0.006c0.384,0.003,0.761,0.006,1.135,0.006
		c7.863,0,13.181-1.057,15.674-1.698l0.297-0.054c0.316-0.055,0.632-0.114,0.954-0.176c1.283-0.245,1.474-1.564,1.662-4.978
		c0.101-1.822,0.128-3.602,0.128-3.675l0.034-2.377l-0.009,0.005C70.493,45.984,70.496,45.858,70.481,45.724z"/>
	<path fill-rule="evenodd" clip-rule="evenodd" fill="#BFBEBD" d="M66.995,57.468c-2.643,0.645-7.804,1.593-15.255,1.593
		c-0.374,0-0.751-0.003-1.135-0.006c-0.349,0.003-0.727,0.006-1.101,0.006c-7.45,0-12.609-0.949-15.253-1.593
		c-1.439,0.256-2.257,0.55-2.257,0.862c0,0.997,8.341,1.807,18.628,1.807c10.288,0,18.628-0.809,18.628-1.807
		C69.251,58.018,68.434,57.724,66.995,57.468z"/>
	<path fill-rule="evenodd" clip-rule="evenodd" fill="#FFFFFF" d="M31.994,47.629c1.546,0.288,3.092,0.558,4.646,0.764
		c1.549,0.227,3.104,0.417,4.659,0.583c3.112,0.325,6.233,0.543,9.354,0.588c3.121,0.064,6.243-0.048,9.352-0.348
		c3.105-0.314,6.196-0.813,9.245-1.589c-2.943,1.117-6.032,1.864-9.162,2.298c-3.128,0.449-6.293,0.602-9.452,0.553
		c-3.156-0.065-6.308-0.326-9.427-0.795C38.092,49.217,34.999,48.564,31.994,47.629z"/>
	<path fill-rule="evenodd" clip-rule="evenodd" fill="#000001" d="M48.258,15.712c0.206,0,0.373-0.167,0.373-0.372l0-1.091
		c0-0.207-0.166-0.373-0.373-0.373s-0.374,0.167-0.374,0.373v1.091C47.884,15.544,48.051,15.712,48.258,15.712z"/>
	<path fill-rule="evenodd" clip-rule="evenodd" fill="#000001" d="M51.527,17.598c0.068,0.121,0.193,0.188,0.323,0.188
		c0.063,0,0.128-0.018,0.186-0.05l1.18-0.68c0.177-0.103,0.24-0.329,0.135-0.509c-0.101-0.178-0.328-0.238-0.507-0.136l-1.179,0.68
		C51.484,17.193,51.425,17.421,51.527,17.598z"/>
	<path fill-rule="evenodd" clip-rule="evenodd" fill="#000001" d="M50.145,16.216c0.057,0.035,0.123,0.051,0.186,0.051
		c0.127,0,0.253-0.066,0.322-0.186l1.214-2.103c0.104-0.177,0.042-0.405-0.133-0.509c-0.179-0.104-0.408-0.041-0.509,0.137
		l-1.214,2.105C49.906,15.887,49.968,16.114,50.145,16.216z"/>
	<path fill-rule="evenodd" clip-rule="evenodd" fill="#000001" d="M52.033,19.487c0,0.205,0.166,0.374,0.374,0.374h1.364
		c0.203,0,0.373-0.169,0.373-0.374c0-0.206-0.167-0.373-0.373-0.373l-1.364,0C52.2,19.115,52.033,19.281,52.033,19.487z"/>
	<path fill-rule="evenodd" clip-rule="evenodd" fill="#000001" d="M43.018,19.86h1.092c0.205,0,0.372-0.168,0.372-0.374
		s-0.166-0.372-0.372-0.372l-1.092,0c-0.207,0-0.372,0.167-0.372,0.372S42.81,19.86,43.018,19.86z"/>
	<path fill-rule="evenodd" clip-rule="evenodd" fill="#000001" d="M42.83,16.785l1.647,0.949c0.06,0.035,0.124,0.052,0.187,0.052
		c0.127,0,0.252-0.068,0.322-0.188c0.104-0.177,0.043-0.406-0.134-0.508l-1.648-0.951c-0.179-0.104-0.407-0.043-0.51,0.136
		C42.59,16.455,42.652,16.682,42.83,16.785z"/>
	<path fill-rule="evenodd" clip-rule="evenodd" fill="#000001" d="M45.86,16.08c0.069,0.119,0.195,0.188,0.322,0.188
		c0.063,0,0.129-0.018,0.186-0.051c0.179-0.102,0.238-0.33,0.137-0.508l-0.7-1.212c-0.105-0.179-0.33-0.238-0.508-0.136
		c-0.179,0.103-0.24,0.332-0.138,0.509L45.86,16.08z"/>
	<path fill-rule="evenodd" clip-rule="evenodd" fill="#384094" d="M11.438,72.166c1.261,0,2.292-0.499,3.092-1.496l1.644,1.693
		c-1.305,1.471-2.843,2.204-4.613,2.204c-1.771,0-3.229-0.557-4.375-1.676c-1.145-1.118-1.718-2.529-1.718-4.234
		c0-1.703,0.584-3.127,1.752-4.266c1.167-1.142,2.596-1.711,4.283-1.711c1.887,0,3.466,0.717,4.735,2.154l-1.594,1.809
		c-0.812-1.008-1.82-1.511-3.026-1.511c-0.965,0-1.79,0.315-2.475,0.944c-0.687,0.631-1.027,1.48-1.027,2.549
		c0,1.068,0.323,1.928,0.97,2.575C9.734,71.842,10.516,72.166,11.438,72.166z"/>
	<path fill-rule="evenodd" clip-rule="evenodd" fill="#384094" d="M21.321,67.758c-0.735,0-1.284,0.261-1.644,0.781
		c-0.362,0.523-0.544,1.209-0.544,2.066v3.833h-2.467v-8.847h2.467v1.166c0.319-0.361,0.717-0.667,1.193-0.921
		c0.477-0.251,0.962-0.383,1.456-0.395l0.017,2.319h-0.478V67.758z"/>
	<path fill-rule="evenodd" clip-rule="evenodd" fill="#384094" d="M26.402,67.578c-0.603,0-1.138,0.197-1.603,0.592
		c-0.466,0.394-0.699,0.942-0.699,1.642c0,0.132,0.006,0.233,0.016,0.297l3.849-1.562C27.822,67.9,27.301,67.578,26.402,67.578
		L26.402,67.578z M26.32,72.544c0.47,0,0.927-0.118,1.373-0.354c0.445-0.237,0.798-0.553,1.061-0.946l1.415,1.53
		c-1.129,1.195-2.404,1.792-3.823,1.792c-1.421,0-2.552-0.433-3.396-1.299c-0.844-0.866-1.266-1.971-1.266-3.315
		c0-1.343,0.463-2.43,1.389-3.265c0.927-0.832,1.993-1.25,3.199-1.25c1.206,0,2.215,0.339,3.027,1.02
		c0.81,0.679,1.25,1.557,1.315,2.631v0.313l-5.887,2.433C25.096,72.306,25.628,72.544,26.32,72.544z"/>
	<path fill-rule="evenodd" clip-rule="evenodd" fill="#384094" d="M33.489,70.028c0,0.725,0.213,1.313,0.64,1.767
		c0.428,0.455,0.926,0.683,1.498,0.683c0.569,0,1.052-0.228,1.447-0.683c0.393-0.455,0.591-1.041,0.591-1.76
		c0-0.717-0.198-1.318-0.591-1.801c-0.395-0.482-0.883-0.724-1.465-0.724c-0.58,0-1.081,0.239-1.497,0.717
		C33.698,68.703,33.489,69.304,33.489,70.028L33.489,70.028z M32.271,73.302c-0.844-0.844-1.265-1.955-1.265-3.332
		c0-1.376,0.433-2.475,1.298-3.298c0.866-0.822,1.869-1.233,3.01-1.233c0.888,0,1.661,0.297,2.319,0.889v-0.739h2.483v8.847h-2.483
		v-0.724c-0.702,0.571-1.502,0.856-2.4,0.856C34.103,74.567,33.115,74.145,32.271,73.302z"/>
	<path fill-rule="evenodd" clip-rule="evenodd" fill="#384094" d="M45.346,62.94v2.649h2.138v1.923h-2.138v3.816
		c0,0.339,0.087,0.606,0.264,0.797c0.175,0.193,0.384,0.288,0.624,0.288c0.461,0,0.849-0.209,1.167-0.624l0.922,1.725
		c-0.767,0.703-1.576,1.053-2.425,1.053c-0.85,0-1.568-0.279-2.154-0.837c-0.588-0.56-0.881-1.322-0.881-2.287V62.94H45.346z"/>
	<path fill-rule="evenodd" clip-rule="evenodd" fill="#384094" d="M53.667,70.357v-4.768h2.483v8.847h-2.483v-1.167
		c-0.614,0.866-1.406,1.298-2.375,1.298c-0.969,0-1.783-0.304-2.442-0.912c-0.657-0.609-0.987-1.51-0.987-2.706v-5.36h2.484v4.817
		c0,1.36,0.497,2.039,1.498,2.039c0.492,0,0.921-0.178,1.283-0.534C53.486,71.555,53.667,71.037,53.667,70.357z"/>
	<path fill-rule="evenodd" clip-rule="evenodd" fill="#384094" d="M65.836,71.681c0,0.871-0.319,1.57-0.96,2.096
		c-0.64,0.527-1.456,0.789-2.442,0.789c-0.657,0-1.344-0.117-2.055-0.353c-0.713-0.235-1.355-0.584-1.925-1.045l1.086-1.545
		c0.923,0.712,1.901,1.068,2.946,1.068c0.316,0,0.57-0.062,0.757-0.188c0.185-0.126,0.279-0.292,0.279-0.502
		c0-0.208-0.128-0.401-0.387-0.576c-0.255-0.174-0.629-0.339-1.118-0.494c-0.487-0.152-0.861-0.285-1.119-0.393
		c-0.257-0.108-0.551-0.269-0.88-0.477c-0.669-0.418-1.002-1.033-1.002-1.851c0-0.818,0.327-1.482,0.986-1.999
		c0.657-0.515,1.507-0.773,2.548-0.773c1.043,0,2.084,0.352,3.125,1.053l-0.921,1.643c-0.768-0.525-1.532-0.789-2.296-0.789
		c-0.761,0-1.143,0.208-1.143,0.625c0,0.229,0.12,0.411,0.361,0.542c0.241,0.132,0.642,0.286,1.2,0.461
		c0.558,0.175,0.957,0.31,1.194,0.402c0.235,0.093,0.517,0.238,0.846,0.435C65.53,70.187,65.836,70.809,65.836,71.681z"/>
	<path fill-rule="evenodd" clip-rule="evenodd" fill="#384094" d="M70.704,67.578c-0.603,0-1.138,0.197-1.603,0.592
		c-0.467,0.394-0.7,0.942-0.7,1.642c0,0.132,0.005,0.233,0.016,0.297l3.849-1.562C72.124,67.9,71.604,67.578,70.704,67.578
		L70.704,67.578z M70.622,72.544c0.471,0,0.928-0.118,1.372-0.354c0.444-0.237,0.797-0.553,1.062-0.946l1.414,1.53
		c-1.13,1.195-2.406,1.792-3.824,1.792c-1.418,0-2.551-0.433-3.395-1.299c-0.845-0.866-1.268-1.971-1.268-3.315
		c0-1.343,0.465-2.43,1.39-3.265c0.928-0.832,1.995-1.25,3.201-1.25c1.204,0,2.212,0.339,3.025,1.02
		c0.81,0.679,1.25,1.557,1.314,2.631v0.313l-5.884,2.433C69.399,72.306,69.931,72.544,70.622,72.544z"/>
	<path fill-rule="evenodd" clip-rule="evenodd" fill="#384094" d="M77.873,62.94v8.387c0,0.339,0.086,0.606,0.262,0.797
		c0.176,0.193,0.385,0.288,0.624,0.288c0.459,0,0.849-0.209,1.166-0.624l0.922,1.725c-0.767,0.703-1.576,1.053-2.425,1.053
		c-0.849,0-1.567-0.279-2.155-0.837c-0.588-0.56-0.88-1.322-0.88-2.287V62.94H77.873z"/>
	<path fill-rule="evenodd" clip-rule="evenodd" fill="#384094" d="M83.02,62.94v8.387c0,0.339,0.087,0.606,0.263,0.797
		c0.174,0.193,0.384,0.288,0.624,0.288c0.459,0,0.849-0.209,1.166-0.624l0.922,1.725c-0.767,0.703-1.575,1.053-2.424,1.053
		c-0.852,0-1.567-0.279-2.155-0.837c-0.588-0.56-0.88-1.322-0.88-2.287V62.94H83.02z"/>
	<path fill-rule="evenodd" clip-rule="evenodd" fill="#384094" d="M87.658,70.012c0,0.724,0.207,1.313,0.616,1.767
		c0.413,0.455,0.938,0.683,1.578,0.683c0.644,0,1.169-0.226,1.58-0.683c0.41-0.455,0.618-1.044,0.618-1.767
		c0-0.723-0.209-1.314-0.618-1.777c-0.411-0.458-0.936-0.689-1.58-0.689c-0.64,0-1.165,0.23-1.578,0.689
		C87.865,68.696,87.658,69.289,87.658,70.012L87.658,70.012z M94.532,70.012c0,1.282-0.444,2.363-1.332,3.239
		c-0.888,0.877-2.003,1.316-3.348,1.316c-1.343,0-2.458-0.438-3.346-1.316c-0.892-0.876-1.332-1.955-1.332-3.239
		c0-1.283,0.444-2.365,1.332-3.249c0.889-0.882,2.002-1.323,3.346-1.323c1.345,0,2.46,0.44,3.348,1.323
		C94.088,67.647,94.532,68.729,94.532,70.012z"/>
	<path fill-rule="evenodd" clip-rule="evenodd" fill="#384094" d="M68.287,80.688c-0.186-0.187-0.281-0.413-0.281-0.685
		c0-0.268,0.095-0.499,0.281-0.681c0.185-0.188,0.414-0.281,0.685-0.281c0.268,0,0.499,0.095,0.68,0.281
		c0.191,0.184,0.281,0.413,0.281,0.681c0,0.272-0.09,0.498-0.281,0.685c-0.181,0.186-0.412,0.279-0.68,0.279
		C68.701,80.967,68.472,80.874,68.287,80.688z"/>
	<path fill-rule="evenodd" clip-rule="evenodd" fill="#384094" d="M75.769,81.585c0.546,0,1.037-0.273,1.476-0.821l0.973,1.094
		c-0.757,0.787-1.582,1.178-2.462,1.178c-0.879,0-1.625-0.278-2.234-0.837c-0.612-0.557-0.911-1.286-0.911-2.187
		c0-0.902,0.302-1.637,0.921-2.197c0.616-0.569,1.348-0.846,2.189-0.846c0.43,0,0.853,0.087,1.289,0.262
		c0.438,0.173,0.816,0.435,1.144,0.775l-0.853,1.111c-0.187-0.224-0.423-0.4-0.696-0.524c-0.275-0.121-0.547-0.184-0.818-0.184
		c-0.43,0-0.795,0.141-1.108,0.422c-0.312,0.283-0.465,0.67-0.465,1.172c0,0.501,0.153,0.888,0.465,1.166
		C74.989,81.446,75.349,81.585,75.769,81.585z"/>
	<path fill-rule="evenodd" clip-rule="evenodd" fill="#384094" d="M79.978,80.011c0,0.478,0.135,0.874,0.41,1.175
		c0.275,0.304,0.622,0.454,1.047,0.454c0.428,0,0.777-0.153,1.051-0.454c0.275-0.301,0.409-0.695,0.409-1.175
		c0-0.485-0.134-0.878-0.409-1.184c-0.274-0.304-0.625-0.457-1.051-0.457c-0.426,0-0.774,0.154-1.047,0.457
		C80.114,79.133,79.978,79.526,79.978,80.011L79.978,80.011z M84.552,80.011c0,0.85-0.299,1.569-0.889,2.154
		c-0.588,0.583-1.332,0.874-2.228,0.874c-0.889,0-1.635-0.291-2.223-0.874c-0.591-0.585-0.884-1.304-0.884-2.154
		c0-0.856,0.292-1.576,0.884-2.164c0.588-0.586,1.335-0.88,2.223-0.88c0.897,0,1.64,0.294,2.228,0.88
		C84.258,78.437,84.552,79.155,84.552,80.011z"/>
	<path fill-rule="evenodd" clip-rule="evenodd" fill="#384094" d="M90.625,79.825v3.17h-1.653V79.78c0-0.468-0.07-0.808-0.215-1.029
		c-0.139-0.218-0.37-0.328-0.685-0.328c-0.322,0-0.603,0.118-0.847,0.357c-0.242,0.236-0.365,0.585-0.365,1.044v3.17h-1.641v-5.887
		h1.641v0.669c0.453-0.509,0.971-0.767,1.556-0.767c0.368,0,0.706,0.11,1.01,0.328c0.303,0.218,0.53,0.484,0.685,0.798
		c0.226-0.359,0.53-0.637,0.912-0.832c0.384-0.199,0.77-0.296,1.155-0.296c0.695,0,1.249,0.207,1.672,0.619
		c0.425,0.409,0.635,1.007,0.635,1.789v3.577h-1.65v-3.214c0-0.908-0.33-1.359-0.992-1.359c-0.33,0-0.616,0.118-0.852,0.356
		C90.745,79.016,90.625,79.365,90.625,79.825z"/>
</g>
</svg>
